<?xml version="1.0"?><svg width="471" height="141" viewBox="4.4419921875 39.343359375 99.6275390625 29.8248046875" xmlns="http://www.w3.org/2000/svg" xmlns:xlink="http://www.w3.org/1999/xlink" version="1.1" id="British_Council_logo" x="0px" y="0px" style="enable-background:new 0 0 108.3 108.3;" xml:space="preserve">
<path xmlns="http://www.w3.org/2000/svg" d="M39.3,53.1V41.2h4.3c0.7,0,1.4,0.1,2.1,0.4c1.1,0.5,1.7,1.5,1.7,2.7c0,1-0.5,2-1.4,2.5l0,0c1.3,0.2,2.3,1.4,2.2,2.7  c0,1.6-1.1,3-2.6,3.3c-0.7,0.2-1.5,0.3-2.3,0.3L39.3,53.1 M44.6,43.2c-0.4-0.1-0.7-0.2-1.1-0.2h-2.2v3.1h2c0.5,0,0.9-0.1,1.3-0.3  c0.7-0.5,0.9-1.4,0.5-2.1C45,43.5,44.8,43.4,44.6,43.2 M45.2,48.1c-0.4-0.2-0.9-0.2-1.4-0.2h-2.6v3.3h2.4c0.5,0,1-0.1,1.5-0.3  c0.6-0.3,0.9-0.8,0.9-1.5C46.1,48.9,45.8,48.4,45.2,48.1L45.2,48.1z"></path>
<rect xmlns="http://www.w3.org/2000/svg" x="60" y="41.2" width="2" height="11.8"></rect>
<rect xmlns="http://www.w3.org/2000/svg" x="74.8" y="41.2" width="2" height="11.8"></rect>
<path xmlns="http://www.w3.org/2000/svg" d="M83.4,41.1c1.1,0,2.2,0.2,3.3,0.7v1.9c-1-0.5-2.2-0.8-3.3-0.8c-1.1,0-2.1,0.3-2.1,1.3c0,2.4,6.1,1.5,6.1,5.5  c0,2.2-1.8,3.7-4.6,3.7c-1.4,0-2.8-0.3-4-1.1l0.8-1.7c1,0.6,2.1,0.9,3.2,0.9c1.2,0,2.4-0.5,2.4-1.5c0-2.5-6-1.4-6-5.5  C79.1,42.3,80.9,41.1,83.4,41.1z"></path>
<polygon xmlns="http://www.w3.org/2000/svg" points="96.9,53.1 96.9,48 91.2,48 91.2,53.1 89.2,53.1 89.2,41.2 91.2,41.2 91.2,46.1 96.9,46.1 96.9,41.2 99,41.2   99,53.1 "></polygon>
<path xmlns="http://www.w3.org/2000/svg" d="M43.8,55.2c1.1,0,2.3,0.2,3.3,0.7l-0.6,1.7C45.7,57.2,44.8,57,44,57c-2.2,0-3.7,1.9-3.7,4.2c0,2.3,1.3,4.2,3.7,4.2  c0.9,0,1.7-0.2,2.5-0.6l0.6,1.7c-1,0.5-2.2,0.7-3.3,0.7c-3.5,0-5.6-2.5-5.6-6C38.2,57.9,40.2,55.2,43.8,55.2z"></path>
<path xmlns="http://www.w3.org/2000/svg" d="M88.2,55.2c1.1,0,2.3,0.2,3.3,0.7l-0.6,1.7c-0.8-0.4-1.6-0.6-2.5-0.6c-2.2,0-3.7,1.9-3.7,4.2c0,2.3,1.3,4.2,3.7,4.2  c0.9,0,1.7-0.2,2.5-0.6l0.6,1.7c-1,0.5-2.2,0.7-3.3,0.7c-3.5,0-5.6-2.5-5.6-6C82.6,57.9,84.6,55.2,88.2,55.2z"></path>
<path xmlns="http://www.w3.org/2000/svg" d="M58.7,61.2c0,3.6-2.3,6.1-5.6,6.1c-3.3,0-5.6-2.5-5.6-6c0-3.5,2.3-6.1,5.6-6.1C56.4,55.2,58.7,57.6,58.7,61.2 M56.5,61.2  c0-2.6-1.5-4.2-3.5-4.2c-2,0-3.5,1.7-3.5,4.3c0,2.6,1.5,4.2,3.5,4.2S56.5,63.8,56.5,61.2L56.5,61.2z"></path>
<path xmlns="http://www.w3.org/2000/svg" d="M60,62.7v-7.4h2v7.5c0,2,1.1,2.7,2.7,2.7c1.7,0,2.7-0.7,2.7-2.7v-7.5h2v7.4c0,3.2-1.8,4.6-4.8,4.6  C61.8,67.3,60,65.9,60,62.7z"></path>
<path xmlns="http://www.w3.org/2000/svg" d="M73.4,58.5L73.4,58.5c0,0.4,0.1,1,0.1,1.6v7h-2.1V55.3h2.2l5.5,8.1l0,0c0-0.4-0.1-1-0.1-1.6v-6.5h2v11.9h-1.8L73.4,58.5z"></path>
<rect xmlns="http://www.w3.org/2000/svg" x="93.1" y="55.3" width="2" height="11.8"></rect>
<polygon xmlns="http://www.w3.org/2000/svg" points="96.9,67.1 96.9,55.3 99,55.3 99,65.3 103.6,65.3 103.6,67.1 "></polygon>
<polygon xmlns="http://www.w3.org/2000/svg" points="73.2,41.2 63.6,41.2 63.6,43.1 67.4,43.1 67.4,53.1 69.4,53.1 69.4,43.1 73.2,43.1 "></polygon>
<path xmlns="http://www.w3.org/2000/svg" d="M56.4,53.1c-1.7-3.6-2.2-4.6-2.9-4.6h-1.9v4.6h-2V41.2h4c3.1,0,4.2,1.6,4.2,3.4c0.1,1.4-0.8,2.7-2.2,3l0,0  c0.5,0.3,1.1,1.4,3.1,5.4L56.4,53.1z M53.7,43h-2.1v3.6h2c1.5,0,2.1-0.8,2.1-1.8C55.8,43.7,55.1,43.1,53.7,43L53.7,43z"></path>
<circle xmlns="http://www.w3.org/2000/svg" cx="26.5" cy="46.7" r="6.8"></circle>
<circle xmlns="http://www.w3.org/2000/svg" cx="11.5" cy="46.7" r="6.8"></circle>
<circle xmlns="http://www.w3.org/2000/svg" cx="26.5" cy="61.7" r="6.8"></circle>
<circle xmlns="http://www.w3.org/2000/svg" cx="11.5" cy="61.7" r="6.8"></circle>
</svg>